<svg id="Group_1859" data-name="Group 1859" xmlns="http://www.w3.org/2000/svg" xmlns:xlink="http://www.w3.org/1999/xlink" width="46.311" height="50.468" viewBox="0 0 46.311 50.468">
  <defs>
    <clipPath id="clip-path">
      <rect id="Rectangle_40436" data-name="Rectangle 40436" width="46.311" height="50.468" fill="#fff"/>
    </clipPath>
  </defs>
  <g id="Group_1858" data-name="Group 1858" clip-path="url(#clip-path)">
    <path id="Path_185512" data-name="Path 185512" d="M168.571,184.561a.776.776,0,0,1-.776-.776v-6.479a.776.776,0,0,1,.776-.776h16.448a.776.776,0,0,1,.776.776v6.005a.776.776,0,0,1-1.552,0v-5.23h-14.9v5.7a.776.776,0,0,1-.776.776" transform="translate(-150.438 -158.271)" fill="#fff"/>
    <path id="Path_185513" data-name="Path 185513" d="M207.252,291.012h-9.24a.776.776,0,0,1,0-1.552h9.24a.776.776,0,0,1,0,1.552" transform="translate(-176.834 -259.518)" fill="#fff"/>
    <path id="Path_185514" data-name="Path 185514" d="M236.386,207.7a4.756,4.756,0,1,1,4.756-4.756,4.761,4.761,0,0,1-4.756,4.756m0-7.96a3.2,3.2,0,1,0,3.2,3.2,3.208,3.208,0,0,0-3.2-3.2" transform="translate(-207.67 -177.684)" fill="#fff"/>
    <path id="Path_185515" data-name="Path 185515" d="M296.933,258.092a4.655,4.655,0,0,1-1.205-.16,4.6,4.6,0,0,1-2.81-2.156l-7.61-13.18a4.632,4.632,0,0,1-.619-2.207.776.776,0,1,1,1.551-.034,3.079,3.079,0,0,0,.412,1.466l7.61,13.18a3.075,3.075,0,1,0,5.327-3.075l-7.61-13.18a3.065,3.065,0,0,0-3.73-1.348.776.776,0,1,1-.54-1.455,4.613,4.613,0,0,1,5.613,2.026l7.61,13.18a4.63,4.63,0,0,1-4,6.943" transform="translate(-255.241 -211.276)" fill="#fff"/>
    <path id="Path_185516" data-name="Path 185516" d="M6.239,249.121a6.783,6.783,0,0,1-3.727-1.135c-3-2.041-2.722-5.232-2.14-7.783l.007-.027,3.194-12.045a7.148,7.148,0,0,1,3.691-4.549l3.819-1.923a.776.776,0,1,1,.7,1.386l-3.819,1.923a5.6,5.6,0,0,0-2.889,3.561L1.882,240.561c-.715,3.15-.278,4.931,1.506,6.144,1.5,1.031,4.322,1.5,5.931-.661l10.794-16.306.008-.011a3.075,3.075,0,0,0-5.064-3.491L6.365,239.364a.776.776,0,1,1-1.294-.856l8.695-13.135.008-.011A4.627,4.627,0,0,1,21.4,230.6L10.6,246.917l-.022.032a5.216,5.216,0,0,1-4.34,2.172" transform="translate(0 -198.656)" fill="#fff"/>
    <path id="Path_185517" data-name="Path 185517" d="M141.351,200.736h-.017a4.341,4.341,0,0,1-3.724-2.276l-.019-.035a.776.776,0,0,1,1.366-.736l.019.035a2.786,2.786,0,0,0,2.391,1.46.776.776,0,0,1-.016,1.551" transform="translate(-123.275 -176.875)" fill="#fff"/>
    <path id="Path_185518" data-name="Path 185518" d="M270.884,395.735a.776.776,0,0,1-.776-.776v-9.082a.776.776,0,0,1,1.082-.713l10.44,4.481a.776.776,0,0,1-.612,1.426l-9.359-4.017v7.9a.776.776,0,0,1-.776.776" transform="translate(-242.168 -345.267)" fill="#fff"/>
    <path id="Path_185519" data-name="Path 185519" d="M378.794,192.361H374.5a.776.776,0,0,1,0-1.552h4.291a.776.776,0,1,1,0,1.552" transform="translate(-335.069 -171.072)" fill="#fff"/>
    <path id="Path_185520" data-name="Path 185520" d="M245.641,4.954a.776.776,0,0,1-.776-.776V.776a.776.776,0,1,1,1.552,0v3.4a.776.776,0,0,1-.776.776" transform="translate(-219.536)" fill="#fff"/>
    <path id="Path_185521" data-name="Path 185521" d="M293.341,19.256a.776.776,0,0,1-.676-1.156l1.836-3.269a.776.776,0,1,1,1.353.76l-1.836,3.269a.776.776,0,0,1-.677.4" transform="translate(-262.302 -12.942)" fill="#fff"/>
    <path id="Path_185522" data-name="Path 185522" d="M368.492,137.51a.776.776,0,0,1-.156-1.536l4.2-.87a.776.776,0,0,1,.314,1.519l-4.2.87a.781.781,0,0,1-.158.016" transform="translate(-329.68 -121.115)" fill="#fff"/>
    <path id="Path_185523" data-name="Path 185523" d="M324.65,43.9a1.364,1.364,0,0,1-1.336-1.033l-.5-1.925-1.925-.5a1.38,1.38,0,0,1,0-2.672l1.925-.5.5-1.925a1.38,1.38,0,0,1,2.672,0l.5,1.925,1.925.5a1.38,1.38,0,0,1,0,2.672l-1.925.5-.5,1.925A1.363,1.363,0,0,1,324.65,43.9m-2.734-4.794,1.385.361a1.381,1.381,0,0,1,.988.988l.361,1.385.36-1.385a1.381,1.381,0,0,1,.988-.988l1.385-.361L326,38.75a1.382,1.382,0,0,1-.988-.988l-.361-1.385-.36,1.385a1.382,1.382,0,0,1-.988.988Zm4.278,1.111h0Z" transform="translate(-286.769 -30.766)" fill="#fff"/>
    <path id="Path_185524" data-name="Path 185524" d="M105.389,90.012a.774.774,0,0,1-.61-.3,8.686,8.686,0,0,1-1.882-5.431V80.137a8.775,8.775,0,0,1,17.551,0v2.879a.776.776,0,0,1-1.552,0V80.137a7.224,7.224,0,0,0-14.448,0v4.149A7.149,7.149,0,0,0,106,88.756a.776.776,0,0,1-.609,1.256" transform="translate(-92.253 -63.98)" fill="#fff"/>
  </g>
</svg>
