<svg id="Group_1857" data-name="Group 1857" xmlns="http://www.w3.org/2000/svg" xmlns:xlink="http://www.w3.org/1999/xlink" width="49.291" height="50.468" viewBox="0 0 49.291 50.468">
  <defs>
    <clipPath id="clip-path">
      <rect id="Rectangle_40435" data-name="Rectangle 40435" width="49.291" height="50.468" fill="#fff"/>
    </clipPath>
  </defs>
  <g id="Group_1856" data-name="Group 1856" clip-path="url(#clip-path)">
    <path id="Path_185488" data-name="Path 185488" d="M28.451,404.864a.762.762,0,0,1-.721-1.007l2.859-8.4a.762.762,0,0,1,.508-.486l1.654-.481a.762.762,0,1,1,.425,1.463l-1.273.37-2.731,8.028a.762.762,0,0,1-.721.517" transform="translate(-24.877 -354.396)" fill="#fff"/>
    <path id="Path_185489" data-name="Path 185489" d="M136.378,304.173a.762.762,0,0,1-.248-1.482l5.561-1.919.458-5.237a.762.762,0,0,1,1.518.133l-.5,5.729a.762.762,0,0,1-.51.654l-6.028,2.08a.762.762,0,0,1-.249.042" transform="translate(-121.843 -264.897)" fill="#fff"/>
    <path id="Path_185490" data-name="Path 185490" d="M319.48,315.366a.762.762,0,0,1-.73-.544l-2.4-8.028-13.761-4.742a.762.762,0,0,1-.511-.654l-.5-5.729a.762.762,0,0,1,1.518-.133l.458,5.236,13.663,4.708a.762.762,0,0,1,.482.5l2.508,8.4a.762.762,0,0,1-.73.98" transform="translate(-270.951 -264.897)" fill="#fff"/>
    <path id="Path_185491" data-name="Path 185491" d="M201.217,356.293c-3.263,0-4.9-1.462-5.692-2.689a5.973,5.973,0,0,1-.935-2.722.762.762,0,0,1,1.522-.073,4.5,4.5,0,0,0,.725,2.016,4.9,4.9,0,0,0,4.381,1.944,4.987,4.987,0,0,0,3.688-1.248,4.094,4.094,0,0,0,1.09-2.659.762.762,0,0,1,1.523-.033,5.592,5.592,0,0,1-1.51,3.743,6.418,6.418,0,0,1-4.791,1.72" transform="translate(-174.827 -314.532)" fill="#fff"/>
    <path id="Path_185492" data-name="Path 185492" d="M215,203.884a1.144,1.144,0,1,1-1.144-1.144A1.144,1.144,0,0,1,215,203.884" transform="translate(-191.106 -182.15)" fill="#fff"/>
    <path id="Path_185493" data-name="Path 185493" d="M288.428,203.884a1.144,1.144,0,1,1-1.144-1.144,1.144,1.144,0,0,1,1.144,1.144" transform="translate(-257.081 -182.15)" fill="#fff"/>
    <path id="Path_185494" data-name="Path 185494" d="M164.3,121.056a4.505,4.505,0,0,1-2.2-.569l-4.479-2.507a5.428,5.428,0,0,1-2.756-4.244l-1.377-10.693c0-.01,0-.02,0-.03a10.416,10.416,0,0,1,.9-5.241.762.762,0,1,1,1.385.633,8.889,8.889,0,0,0-.764,4.459l1.377,10.692c0,.01,0,.02,0,.03a3.906,3.906,0,0,0,1.984,3.065l4.479,2.507a3,3,0,0,0,2.91,0l4.479-2.507a3.905,3.905,0,0,0,1.984-3.065v-.012l1.529-14.668a.762.762,0,1,1,1.515.158l-1.529,14.662a5.427,5.427,0,0,1-2.757,4.254l-4.479,2.507a4.506,4.506,0,0,1-2.2.569" transform="translate(-137.861 -87.441)" fill="#fff"/>
    <path id="Path_185495" data-name="Path 185495" d="M160.743,15.217c-1.4,0-2.988-.947-4.388-2.714-1.1-1.383-1.631-1.251-3.62-.758-.36.089-.769.191-1.217.289a5.931,5.931,0,0,1-4.658-.81,5.53,5.53,0,0,1-2.326-3.749c-.5-3.043.621-5.525,3.064-6.81A7.337,7.337,0,0,1,153.981.8a5.622,5.622,0,0,1,2.758,4.935.762.762,0,0,1-1.521.083,4.182,4.182,0,0,0-1.988-3.693,5.747,5.747,0,0,0-4.923-.113c-1.852.975-2.658,2.828-2.269,5.217a3.97,3.97,0,0,0,1.678,2.733,4.425,4.425,0,0,0,3.475.583c.429-.094.81-.189,1.178-.28,2.093-.519,3.476-.861,5.181,1.29,1.167,1.472,2.814,2.616,3.923,1.93l3.457-4.7a.762.762,0,0,1,1.228.9l-3.535,4.81a.762.762,0,0,1-.166.165,2.864,2.864,0,0,1-1.713.558" transform="translate(-129.752 0.001)" fill="#fff"/>
    <path id="Path_185496" data-name="Path 185496" d="M257.918,38.036a.762.762,0,0,1-.749-.626c-.039-.2-1.068-5-9.139-4.66a.762.762,0,0,1-.064-1.522c2.689-.113,6.411.268,8.868,2.725a6.6,6.6,0,0,1,1.835,3.186.762.762,0,0,1-.75.9" transform="translate(-222.127 -28.04)" fill="#fff"/>
    <path id="Path_185497" data-name="Path 185497" d="M313.211,139.826a.761.761,0,0,1-.631-.334l-3.592-5.293a.762.762,0,1,1,1.261-.855l3.592,5.293a.762.762,0,0,1-.63,1.189" transform="translate(-277.49 -119.501)" fill="#fff"/>
    <path id="Path_185498" data-name="Path 185498" d="M160,132a.762.762,0,0,1-.719-1.014l2.251-6.416a.762.762,0,0,1,1.438.5l-2.251,6.416A.762.762,0,0,1,160,132" transform="translate(-143.064 -111.462)" fill="#fff"/>
    <path id="Path_185499" data-name="Path 185499" d="M239.152,259.287a2.473,2.473,0,0,1-2.282-1.512.762.762,0,1,1,1.4-.594.954.954,0,0,0,1.757,0,.762.762,0,1,1,1.4.594,2.473,2.473,0,0,1-2.282,1.512" transform="translate(-212.76 -230.644)" fill="#fff"/>
    <path id="Path_185500" data-name="Path 185500" d="M194.121,184.474a.757.757,0,0,1-.4-.113,4.67,4.67,0,0,0-3.944-.132.762.762,0,1,1-.624-1.39,6.192,6.192,0,0,1,5.367.225.762.762,0,0,1-.4,1.41" transform="translate(-169.54 -163.801)" fill="#fff"/>
    <path id="Path_185501" data-name="Path 185501" d="M271.159,184.473a.762.762,0,0,1-.4-1.41,6.191,6.191,0,0,1,5.367-.225.762.762,0,0,1-.622,1.391,4.722,4.722,0,0,0-3.947.131.758.758,0,0,1-.4.113" transform="translate(-242.935 -163.8)" fill="#fff"/>
    <path id="Path_185502" data-name="Path 185502" d="M240.217,431.071h-1.178a.762.762,0,0,1-.762-.762v-1.214a2.113,2.113,0,0,0-.366-1.235,2.1,2.1,0,1,1,3.821-1.217,2.085,2.085,0,0,1-.412,1.249,1.9,1.9,0,0,0-.342,1.129v1.288a.762.762,0,0,1-.762.762m-.589-5.009a.636.636,0,0,0-.07,0,.585.585,0,0,0-.509.518.574.574,0,0,0,.1.393,3.416,3.416,0,0,1,.469.942,3.194,3.194,0,0,1,.475-.933.579.579,0,0,0-.081-.776.579.579,0,0,0-.387-.148" transform="translate(-213.401 -381.423)" fill="#fff"/>
    <path id="Path_185503" data-name="Path 185503" d="M177.915,357.623a.761.761,0,0,1-.242-.039,10.459,10.459,0,0,1-6.1-5.686,14.38,14.38,0,0,1-1.246-4.029.762.762,0,0,1,1.512-.185c.012.092.9,6.643,6.317,8.454a.762.762,0,0,1-.242,1.484" transform="translate(-153.024 -311.773)" fill="#fff"/>
    <path id="Path_185504" data-name="Path 185504" d="M264.725,357.623a.762.762,0,0,1-.241-1.484c5.448-1.822,6.308-8.388,6.317-8.454a.762.762,0,1,1,1.512.184,14.372,14.372,0,0,1-1.246,4.029,10.459,10.459,0,0,1-6.1,5.686.762.762,0,0,1-.242.039" transform="translate(-237.156 -311.773)" fill="#fff"/>
    <path id="Path_185505" data-name="Path 185505" d="M340.151,457.879a.762.762,0,0,1-.762-.762v-2.13h-4.432v2.13a.762.762,0,0,1-1.523,0v-2.891a.762.762,0,0,1,.762-.762h5.956a.762.762,0,0,1,.762.762v2.891a.762.762,0,0,1-.762.762" transform="translate(-299.571 -407.41)" fill="#fff"/>
    <path id="Path_185506" data-name="Path 185506" d="M363.518,445.388a.762.762,0,0,1-.762-.762V442.3a.762.762,0,0,1,1.523,0v2.328a.762.762,0,0,1-.762.762" transform="translate(-325.915 -396.695)" fill="#fff"/>
    <path id="Path_185507" data-name="Path 185507" d="M99.953,409.469H97.232a.762.762,0,1,1,0-1.523h2.721a.377.377,0,0,0,0-.754H97.232a.762.762,0,1,1,0-1.523h2.721a1.9,1.9,0,0,1,0,3.8" transform="translate(-86.673 -364.47)" fill="#fff"/>
    <path id="Path_185508" data-name="Path 185508" d="M99.953,431.891H97.232a.762.762,0,1,1,0-1.523h2.721a.377.377,0,0,0,0-.754H97.232a.762.762,0,1,1,0-1.523h2.721a1.9,1.9,0,0,1,0,3.8" transform="translate(-86.673 -384.614)" fill="#fff"/>
    <path id="Path_185509" data-name="Path 185509" d="M75.72,393.879H71.666a1.9,1.9,0,0,1-1.9-1.867l-.265-3.39a.746.746,0,0,1,0-.118l.265-3.39a1.9,1.9,0,0,1,1.9-1.867H75.72a1.9,1.9,0,0,1,0,3.8H73a.762.762,0,1,1,0-1.523H75.72a.377.377,0,0,0,0-.754H71.666a.377.377,0,0,0-.377.377c0,.02,0,.039,0,.059l-.262,3.356.262,3.356q0,.03,0,.059a.377.377,0,0,0,.377.377H75.72a.377.377,0,0,0,0-.754H73a.762.762,0,0,1,0-1.523H75.72a1.9,1.9,0,0,1,0,3.8" transform="translate(-62.441 -344.325)" fill="#fff"/>
    <path id="Path_185510" data-name="Path 185510" d="M11.271,161.292a.762.762,0,0,1-.762-.762V148.973l-10.135-6a.762.762,0,0,1-.023-1.3l10.508-6.736a.762.762,0,0,1,1.173.641v12.942c0,.009,0,.018,0,.027V160.53a.762.762,0,0,1-.762.762m-9.057-19,8.295,4.909V136.977Z" transform="translate(-0.001 -121.13)" fill="#fff"/>
    <path id="Path_185511" data-name="Path 185511" d="M93.529,375.592a.762.762,0,0,1,0-1.523.242.242,0,0,0,.242-.234l-.055-1.858a1.852,1.852,0,0,0-.541-1.257L92.458,370a.41.41,0,0,0-.461-.083l-.04.017-3.585,1.406a.762.762,0,1,1-.556-1.418l3.567-1.4a1.939,1.939,0,0,1,2.154.4l.716.719a3.369,3.369,0,0,1,.985,2.287l.055,1.873q0,.011,0,.023a1.767,1.767,0,0,1-1.765,1.765" transform="translate(-78.463 -330.948)" fill="#fff"/>
  </g>
</svg>
