<svg xmlns="http://www.w3.org/2000/svg" width="153.388" height="43.794" viewBox="0 0 153.388 43.794">
  <g id="Group_140826" data-name="Group 140826" transform="translate(-179.452 -1.312)">
    <g id="Group_140913" data-name="Group 140913">
      <path id="Path_180008" data-name="Path 180008" d="M1283.682,52.093H1139.416a4.574,4.574,0,0,1-4.561-4.561V12.86a4.574,4.574,0,0,1,4.561-4.561h144.267a4.574,4.574,0,0,1,4.561,4.561V47.532a4.574,4.574,0,0,1-4.561,4.561" transform="translate(-955.403 -6.987)"/>
      <path id="Path_180009" data-name="Path 180009" d="M1201.48,55.945a1.694,1.694,0,0,0-.491,1.2V82.822a1.73,1.73,0,0,0,.05.413l14.293-13.824Z" transform="translate(-1011.08 -47.099)" fill="#05d4fb"/>
      <path id="Path_180010" data-name="Path 180010" d="M1222.874,61.758l-16.627-9.02a1.805,1.805,0,0,0-2.153.321l13.853,13.466Z" transform="translate(-1013.694 -44.213)" fill="#06ef79"/>
      <path id="Path_180011" data-name="Path 180011" d="M1302.174,113.964l-5.548-3.009-4.927,4.768,5.975,5.81,4.444-2.293a2.967,2.967,0,0,0,.056-5.275" transform="translate(-1087.446 -93.41)" fill="#fccf02"/>
      <path id="Path_180012" data-name="Path 180012" d="M1201.308,154.93a1.791,1.791,0,0,0,2.561,1.125l17.707-9.139-5.975-5.81Z" transform="translate(-1011.348 -118.793)" fill="#f9374a"/>
      <path id="Path_180013" data-name="Path 180013" d="M1426.984,133.321a7.688,7.688,0,0,1,7.713-7.561,7.273,7.273,0,0,1,5.209,2.083l-1.465,1.457a5.306,5.306,0,0,0-3.746-1.474,5.5,5.5,0,0,0,0,10.991,5.09,5.09,0,0,0,3.837-1.514,4.309,4.309,0,0,0,1.132-2.6H1434.7v-2.061h6.99a6.724,6.724,0,0,1,.112,1.29,6.805,6.805,0,0,1-1.8,4.832,6.971,6.971,0,0,1-5.3,2.121,7.686,7.686,0,0,1-7.714-7.561Zm20.465-2.175a4.868,4.868,0,1,0,4.913,4.866,4.815,4.815,0,0,0-4.913-4.866m0,7.82a2.958,2.958,0,1,1,2.761-2.951,2.824,2.824,0,0,1-2.761,2.951m10.72-7.82a4.868,4.868,0,1,0,4.913,4.866,4.812,4.812,0,0,0-4.913-4.866m0,7.82a2.958,2.958,0,1,1,2.763-2.951,2.824,2.824,0,0,1-2.763,2.951m13.156-7.524v.792h-.074a3.388,3.388,0,0,0-2.575-1.089,4.873,4.873,0,0,0,0,9.739,3.341,3.341,0,0,0,2.575-1.1h.074v.7c0,1.862-1,2.859-2.614,2.859a2.71,2.71,0,0,1-2.467-1.732l-1.874.774a4.667,4.667,0,0,0,4.339,2.876c2.52,0,4.653-1.477,4.653-5.072V131.44Zm-2.465,7.524a2.96,2.96,0,0,1,0-5.9,2.972,2.972,0,0,1,0,5.9m5.988-12.689H1477v14.311h-2.152Zm8.05,12.689a2.488,2.488,0,0,1-2.371-1.474l6.546-2.7-.226-.553a4.544,4.544,0,0,0-4.19-3.1,4.639,4.639,0,0,0-4.617,4.869,4.778,4.778,0,0,0,4.859,4.867,4.87,4.87,0,0,0,4.08-2.158l-1.669-1.105A2.8,2.8,0,0,1,1482.9,138.966Zm-.168-5.939a1.9,1.9,0,0,1,1.816,1.032l-4.378,1.808A2.678,2.678,0,0,1,1482.729,133.027Z" transform="translate(-1201.336 -105.874)" fill="#fff" fill-rule="evenodd"/>
      <path id="Path_180014" data-name="Path 180014" d="M1842.048,129.028h-5.236v14.311H1839v-5.421h3.052a4.458,4.458,0,1,0,0-8.889Zm.057,6.9H1839v-4.907h3.108a2.456,2.456,0,1,1,0,4.907m8.139-6.9h-2.185v14.311h2.185Zm9.817,14.286v-5.486c0-2.541-1.943-3.958-4.45-3.958a4.121,4.121,0,0,0-3.9,2.191l1.939.79a2.382,2.382,0,0,1,4.294.793v.148a4.91,4.91,0,0,0-2.28-.553c-2.091,0-4.219,1.123-4.219,3.222,0,1.916,1.715,3.148,3.637,3.148a3.1,3.1,0,0,0,2.787-1.4h.075v1.105h2.112Zm-4.711-1.6c-.716,0-1.715-.35-1.715-1.213,0-1.105,1.245-1.531,2.319-1.531a3.965,3.965,0,0,1,2,.479,2.634,2.634,0,0,1-2.6,2.266m12.4-7.531-2.506,6.2h-.075l-2.6-6.2h-2.354l3.9,8.673-2.224,4.823h2.279l6.009-13.5Z" transform="translate(-1546.362 -108.625)" fill="#fff" fill-rule="evenodd"/>
      <path id="Path_180015" data-name="Path 180015" d="M1463.856,58.617a3.6,3.6,0,0,1-3.657-3.624,3.467,3.467,0,0,1,1.052-2.568,3.52,3.52,0,0,1,2.6-1.054,3.633,3.633,0,0,1,2.605,6.19,3.5,3.5,0,0,1-2.6,1.056m-30.886,0a3.663,3.663,0,0,1-2.617-1.04,3.632,3.632,0,0,1,0-5.164,3.616,3.616,0,0,1,2.617-1.04,3.722,3.722,0,0,1,1.461.3,2.955,2.955,0,0,1,1.112.777l.069.081-.775.743-.08-.092a2.226,2.226,0,0,0-1.8-.757,2.516,2.516,0,0,0-1.793.715,2.672,2.672,0,0,0,0,3.722,2.666,2.666,0,0,0,3.635,0,1.916,1.916,0,0,0,.526-1.165h-2.485V54.649h3.552l.014.1a3.745,3.745,0,0,1,.051.525,3.106,3.106,0,0,1-.886,2.319,3.5,3.5,0,0,1-2.6,1.028m41.066-.148h-1.1l-3.354-5.245.029.944v4.3h-1.1V51.522h1.25l.034.053,3.154,4.941-.028-.942V51.522h1.106Zm-18.41,0h-1.109v-5.9h-1.925V51.522h4.956v1.045h-1.925v5.9Zm-3.937,0h-1.107V51.522h1.107Zm-6.22,0h-1.107v-5.9h-1.924V51.522h4.956v1.045h-1.925Zm-3.732-.011h-4.244V51.522h4.244v1.045H1438.6v1.906h2.828v1.034H1438.6v1.906h3.134Zm20.326-1.612a2.478,2.478,0,0,0,1.793.727,2.414,2.414,0,0,0,1.793-.727,2.575,2.575,0,0,0-1.79-4.426,2.4,2.4,0,0,0-1.79.726,2.712,2.712,0,0,0-.005,3.7" transform="translate(-1203.267 -43.248)" fill="#fff"/>
    </g>
  </g>
</svg>
