<svg xmlns="http://www.w3.org/2000/svg" width="153.462" height="44.115" viewBox="0 0 153.462 44.115">
  <g id="Group_140822" data-name="Group 140822" transform="translate(-1.134 -1.048)">
    <g id="Group_140914" data-name="Group 140914">
      <path id="Path_179986" data-name="Path 179986" d="M155.817,50.742H11.991a4.832,4.832,0,0,1-4.818-4.818V11.445a4.832,4.832,0,0,1,4.818-4.818H155.817a4.832,4.832,0,0,1,4.818,4.818V45.924a4.832,4.832,0,0,1-4.818,4.818" transform="translate(-6.039 -5.579)"/>
      <path id="Path_179987" data-name="Path 179987" d="M91.372,71.023a13.737,13.737,0,0,1-1.4,2.457,12.561,12.561,0,0,1-1.8,2.128,3.535,3.535,0,0,1-2.316,1,5.916,5.916,0,0,1-2.139-.5,6.258,6.258,0,0,0-2.3-.5,6.472,6.472,0,0,0-2.368.5A6.49,6.49,0,0,1,77,76.631a3.327,3.327,0,0,1-2.368-1.023,13.191,13.191,0,0,1-1.884-2.2,15.1,15.1,0,0,1-1.993-3.868,13.875,13.875,0,0,1-.837-4.61,8.269,8.269,0,0,1,1.131-4.4,6.562,6.562,0,0,1,2.369-2.342,6.486,6.486,0,0,1,3.2-.883,7.691,7.691,0,0,1,2.478.564,8.109,8.109,0,0,0,1.965.565,11.958,11.958,0,0,0,2.179-.665,7.353,7.353,0,0,1,2.962-.514,6.331,6.331,0,0,1,4.927,2.535,5.487,5.487,0,0,0-1.1,8.909,5.939,5.939,0,0,0,1.8,1.155q-.217.614-.459,1.179m-5.02-19.3a5.354,5.354,0,0,1-1.423,3.557A4.889,4.889,0,0,1,80.9,57.219a3.862,3.862,0,0,1-.03-.482,5.505,5.505,0,0,1,1.509-3.595,5.8,5.8,0,0,1,1.839-1.349,5.58,5.58,0,0,1,2.1-.582,4.509,4.509,0,0,1,.027.509" transform="translate(-58.862 -43.113)" fill="#fff"/>
      <path id="Path_179988" data-name="Path 179988" d="M305.8,140.469h-2.554l-1.4-4.3h-4.864l-1.333,4.3h-2.487l4.819-14.628h2.976Zm-4.376-6.1-1.266-3.82q-.2-.585-.755-2.756h-.045q-.221.933-.711,2.756l-1.243,3.82Z" transform="translate(-246.808 -105.942)" fill="#fff"/>
      <path id="Path_179989" data-name="Path 179989" d="M396.112,155.635a5.911,5.911,0,0,1-1.488,4.253,4.4,4.4,0,0,1-3.309,1.389,3.332,3.332,0,0,1-3.065-1.5H388.2v5.556h-2.4V153.963q0-1.692-.089-3.472h2.109l.134,1.672h.045a4.326,4.326,0,0,1,6.829-.413,5.726,5.726,0,0,1,1.278,3.886m-2.443.086a4.27,4.27,0,0,0-.711-2.539,2.473,2.473,0,0,0-2.088-1.042,2.529,2.529,0,0,0-1.61.575,2.658,2.658,0,0,0-.944,1.509,3.007,3.007,0,0,0-.111.714V156.7a2.78,2.78,0,0,0,.722,1.943,2.419,2.419,0,0,0,1.876.793,2.475,2.475,0,0,0,2.109-1.02,4.414,4.414,0,0,0,.756-2.692" transform="translate(-324.725 -126.512)" fill="#fff"/>
      <path id="Path_179990" data-name="Path 179990" d="M474.628,155.635a5.907,5.907,0,0,1-1.489,4.253,4.4,4.4,0,0,1-3.308,1.389,3.329,3.329,0,0,1-3.064-1.5h-.045v5.556h-2.4V153.963q0-1.692-.089-3.472h2.109l.134,1.672h.045a4.328,4.328,0,0,1,6.83-.413,5.742,5.742,0,0,1,1.275,3.886m-2.443.086a4.27,4.27,0,0,0-.712-2.539,2.47,2.47,0,0,0-2.086-1.042,2.533,2.533,0,0,0-1.611.575,2.657,2.657,0,0,0-.943,1.509,3.065,3.065,0,0,0-.111.714V156.7a2.789,2.789,0,0,0,.72,1.943,2.424,2.424,0,0,0,1.878.793,2.475,2.475,0,0,0,2.109-1.02,4.414,4.414,0,0,0,.756-2.692" transform="translate(-390.827 -126.512)" fill="#fff"/>
      <path id="Path_179991" data-name="Path 179991" d="M568.3,135.225a3.858,3.858,0,0,1-1.33,3.038,5.982,5.982,0,0,1-4.077,1.281,7.268,7.268,0,0,1-3.88-.911l.556-1.953a6.69,6.69,0,0,0,3.467.934,3.332,3.332,0,0,0,2.111-.6,1.935,1.935,0,0,0,.754-1.6,2.014,2.014,0,0,0-.622-1.5,5.815,5.815,0,0,0-2.065-1.131q-3.931-1.433-3.93-4.195a3.677,3.677,0,0,1,1.378-2.956,5.515,5.515,0,0,1,3.665-1.152,7.407,7.407,0,0,1,3.4.695l-.6,1.91a6,6,0,0,0-2.865-.673,2.945,2.945,0,0,0-1.975.608,1.719,1.719,0,0,0-.6,1.325,1.772,1.772,0,0,0,.687,1.432,7.825,7.825,0,0,0,2.178,1.129,7.41,7.41,0,0,1,2.843,1.779,3.665,3.665,0,0,1,.909,2.536" transform="translate(-470.619 -104.8)" fill="#fff"/>
      <path id="Path_179992" data-name="Path 179992" d="M632.889,139.411h-2.643v5.121q0,1.954,1.4,1.953a4.358,4.358,0,0,0,1.065-.109l.066,1.78a5.553,5.553,0,0,1-1.865.259,2.913,2.913,0,0,1-2.222-.846,4.092,4.092,0,0,1-.8-2.844v-5.317h-1.575V137.65h1.575v-1.931l2.355-.695v2.626h2.643Z" transform="translate(-527.277 -113.673)" fill="#fff"/>
      <path id="Path_179993" data-name="Path 179993" d="M687.023,155.685a5.706,5.706,0,0,1-1.422,3.994,5.134,5.134,0,0,1-3.955,1.606,4.881,4.881,0,0,1-3.785-1.54,5.532,5.532,0,0,1-1.41-3.885,5.652,5.652,0,0,1,1.454-4.014,5.092,5.092,0,0,1,3.919-1.563,4.986,4.986,0,0,1,3.82,1.541,5.468,5.468,0,0,1,1.379,3.861m-2.488.076a4.66,4.66,0,0,0-.643-2.5A2.377,2.377,0,0,0,681.739,152a2.415,2.415,0,0,0-2.2,1.262,4.75,4.75,0,0,0-.643,2.547,4.655,4.655,0,0,0,.643,2.5,2.478,2.478,0,0,0,4.331-.022,4.678,4.678,0,0,0,.665-2.524" transform="translate(-569.486 -126.518)" fill="#fff"/>
      <path id="Path_179994" data-name="Path 179994" d="M761.861,152.552a4.26,4.26,0,0,0-.756-.065,2.284,2.284,0,0,0-1.955.934,3.453,3.453,0,0,0-.6,2.083v5.534h-2.4l.023-7.226q0-1.824-.09-3.321h2.089l.088,2.018h.066a3.609,3.609,0,0,1,1.2-1.671,2.944,2.944,0,0,1,1.733-.565,3.937,3.937,0,0,1,.6.043Z" transform="translate(-636.528 -126.512)" fill="#fff"/>
      <path id="Path_179995" data-name="Path 179995" d="M809.362,155.16a5.372,5.372,0,0,1-.088,1.063h-7.194a3.03,3.03,0,0,0,1.044,2.389,3.62,3.62,0,0,0,2.353.738,8.123,8.123,0,0,0,2.911-.5l.376,1.627a9.183,9.183,0,0,1-3.619.652,4.963,4.963,0,0,1-5.376-5.317,5.954,5.954,0,0,1,1.334-3.971,4.64,4.64,0,0,1,3.774-1.692,4.054,4.054,0,0,1,3.533,1.692,5.609,5.609,0,0,1,.952,3.32m-2.287-.608a3.127,3.127,0,0,0-.466-1.8,2.108,2.108,0,0,0-1.911-.977,2.292,2.292,0,0,0-1.909.955,3.453,3.453,0,0,0-.71,1.823h5Z" transform="translate(-673.303 -126.406)" fill="#fff"/>
      <path id="Path_179996" data-name="Path 179996" d="M309.951,54.968A3.463,3.463,0,0,1,308.8,57.8a4.667,4.667,0,0,1-3.037.879,14.4,14.4,0,0,1-1.673-.083V51.74a12.631,12.631,0,0,1,1.97-.145,4.317,4.317,0,0,1,2.827.8,3.185,3.185,0,0,1,1.068,2.577M308.745,55a2.514,2.514,0,0,0-.661-1.873,2.643,2.643,0,0,0-1.933-.652,4.955,4.955,0,0,0-.921.072v5.215a6.211,6.211,0,0,0,.773.031,2.742,2.742,0,0,0,2.027-.713,2.818,2.818,0,0,0,.716-2.08" transform="translate(-256.002 -43.436)" fill="#fff"/>
      <path id="Path_179997" data-name="Path 179997" d="M354.79,66.155a2.719,2.719,0,0,1-.678,1.9,2.446,2.446,0,0,1-1.885.766,2.325,2.325,0,0,1-1.805-.735,2.64,2.64,0,0,1-.671-1.852,2.694,2.694,0,0,1,.693-1.913,2.432,2.432,0,0,1,1.869-.744,2.38,2.38,0,0,1,1.821.734,2.618,2.618,0,0,1,.656,1.841m-1.186.036A2.233,2.233,0,0,0,353.3,65a1.133,1.133,0,0,0-1.026-.6,1.152,1.152,0,0,0-1.049.6,2.264,2.264,0,0,0-.307,1.214,2.235,2.235,0,0,0,.307,1.194,1.159,1.159,0,0,0,1.038.6,1.145,1.145,0,0,0,1.026-.612,2.219,2.219,0,0,0,.318-1.2" transform="translate(-294.446 -53.526)" fill="#fff"/>
      <path id="Path_179998" data-name="Path 179998" d="M396.154,64.228l-1.61,5.028H393.5l-.667-2.183a16.045,16.045,0,0,1-.414-1.624H392.4a11.667,11.667,0,0,1-.414,1.624l-.708,2.183h-1.06L388.7,64.228h1.176l.582,2.39q.211.848.349,1.614h.021q.128-.63.425-1.6l.73-2.4h.932l.7,2.349q.254.859.413,1.655h.032a15.507,15.507,0,0,1,.349-1.655l.624-2.349h1.123Z" transform="translate(-327.236 -54.072)" fill="#fff"/>
      <path id="Path_179999" data-name="Path 179999" d="M449.332,68.693h-1.144v-2.88q0-1.331-1.037-1.331a1.043,1.043,0,0,0-.826.366,1.28,1.28,0,0,0-.318.862v2.982h-1.144V65.1q0-.662-.042-1.439h1.005l.053.786h.032a1.632,1.632,0,0,1,.592-.607,1.968,1.968,0,0,1,1.037-.283,1.663,1.663,0,0,1,1.2.455,2.183,2.183,0,0,1,.593,1.666Z" transform="translate(-374.483 -53.509)" fill="#fff"/>
      <rect id="Rectangle_44934" data-name="Rectangle 44934" width="1.143" height="7.335" transform="translate(76.86 7.849)" fill="#fff"/>
      <path id="Path_180000" data-name="Path 180000" d="M509.047,66.155a2.719,2.719,0,0,1-.678,1.9,2.448,2.448,0,0,1-1.885.766,2.322,2.322,0,0,1-1.805-.735,2.64,2.64,0,0,1-.671-1.852,2.7,2.7,0,0,1,.693-1.913,2.432,2.432,0,0,1,1.867-.744,2.382,2.382,0,0,1,1.823.734,2.618,2.618,0,0,1,.656,1.841m-1.187.036A2.234,2.234,0,0,0,507.553,65a1.132,1.132,0,0,0-1.025-.6,1.15,1.15,0,0,0-1.049.6,2.264,2.264,0,0,0-.307,1.214,2.235,2.235,0,0,0,.307,1.194,1.159,1.159,0,0,0,1.038.6,1.143,1.143,0,0,0,1.025-.612,2.21,2.21,0,0,0,.318-1.2" transform="translate(-424.31 -53.526)" fill="#fff"/>
      <path id="Path_180001" data-name="Path 180001" d="M548.4,68.71h-1.027l-.085-.579h-.032a1.777,1.777,0,0,1-1.5.693,1.57,1.57,0,0,1-1.174-.456,1.41,1.41,0,0,1-.4-1.024,1.555,1.555,0,0,1,.789-1.407,4.174,4.174,0,0,1,2.219-.476v-.094q0-.994-1.068-.993a2.433,2.433,0,0,0-1.341.372l-.233-.734a3.36,3.36,0,0,1,1.765-.434,1.813,1.813,0,0,1,2.019,2.08v1.852a7.673,7.673,0,0,0,.074,1.2m-1.187-1.728v-.775q-1.893-.032-1.893,1.013a.748.748,0,0,0,.219.59.811.811,0,0,0,.559.2,1.173,1.173,0,0,0,.7-.232.951.951,0,0,0,.4-.6.924.924,0,0,0,.018-.2" transform="translate(-458.123 -53.526)" fill="#fff"/>
      <path id="Path_180002" data-name="Path 180002" d="M585.837,56.974h-1.015l-.054-.807h-.032a1.717,1.717,0,0,1-1.652.922,1.954,1.954,0,0,1-1.546-.714,2.738,2.738,0,0,1-.613-1.852,2.873,2.873,0,0,1,.667-1.976,2.071,2.071,0,0,1,1.588-.7,1.553,1.553,0,0,1,1.449.683h.022V49.639H585.8v5.98q0,.734.04,1.355m-1.185-2.12v-.838a1.607,1.607,0,0,0-.032-.352,1.268,1.268,0,0,0-.414-.677,1.14,1.14,0,0,0-.765-.274,1.182,1.182,0,0,0-1.006.5,2.1,2.1,0,0,0-.367,1.272,1.952,1.952,0,0,0,.351,1.21,1.186,1.186,0,0,0,1,.5,1.112,1.112,0,0,0,.9-.414,1.358,1.358,0,0,0,.329-.92" transform="translate(-489.066 -41.79)" fill="#fff"/>
      <path id="Path_180003" data-name="Path 180003" d="M647.021,66.155a2.719,2.719,0,0,1-.678,1.9,2.445,2.445,0,0,1-1.885.766,2.329,2.329,0,0,1-1.805-.735,2.64,2.64,0,0,1-.671-1.852,2.7,2.7,0,0,1,.693-1.913,2.433,2.433,0,0,1,1.87-.744,2.378,2.378,0,0,1,1.82.734,2.618,2.618,0,0,1,.656,1.841m-1.185.036A2.233,2.233,0,0,0,645.529,65a1.135,1.135,0,0,0-1.027-.6,1.154,1.154,0,0,0-1.049.6,2.263,2.263,0,0,0-.307,1.214,2.234,2.234,0,0,0,.307,1.194,1.159,1.159,0,0,0,1.038.6,1.146,1.146,0,0,0,1.027-.612,2.228,2.228,0,0,0,.318-1.2" transform="translate(-540.467 -53.526)" fill="#fff"/>
      <path id="Path_180004" data-name="Path 180004" d="M688.74,68.693H687.6v-2.88q0-1.331-1.038-1.331a1.039,1.039,0,0,0-.825.366,1.275,1.275,0,0,0-.318.862v2.982h-1.145V65.1q0-.662-.04-1.439h1l.053.786h.032a1.649,1.649,0,0,1,.593-.607,1.972,1.972,0,0,1,1.038-.283,1.662,1.662,0,0,1,1.2.455,2.179,2.179,0,0,1,.593,1.666Z" transform="translate(-576.035 -53.509)" fill="#fff"/>
      <path id="Path_180005" data-name="Path 180005" d="M744.742,58.4h-1.26v2.442c0,.621.224.931.667.931a2.057,2.057,0,0,0,.51-.052l.029.848a2.625,2.625,0,0,1-.888.125,1.384,1.384,0,0,1-1.058-.4,1.941,1.941,0,0,1-.382-1.356V58.4h-.752v-.837h.752v-.921l1.121-.331v1.251h1.26V58.4Z" transform="translate(-624.34 -47.406)" fill="#fff"/>
      <path id="Path_180006" data-name="Path 180006" d="M775.928,56.974h-1.145V54.115q0-1.352-1.036-1.352a1.089,1.089,0,0,0-1.091.784,1.376,1.376,0,0,0-.053.4v3.024H771.46V49.639H772.6v3.03h.022a1.739,1.739,0,0,1,1.545-.827,1.614,1.614,0,0,1,1.177.455,2.258,2.258,0,0,1,.582,1.686v2.99" transform="translate(-649.471 -41.79)" fill="#fff"/>
      <path id="Path_180007" data-name="Path 180007" d="M814.866,65.908a2.636,2.636,0,0,1-.042.507h-3.43a1.452,1.452,0,0,0,.5,1.138,1.73,1.73,0,0,0,1.123.352,3.869,3.869,0,0,0,1.387-.238l.179.776a4.4,4.4,0,0,1-1.727.31,2.526,2.526,0,0,1-1.878-.688,2.5,2.5,0,0,1-.682-1.846,2.835,2.835,0,0,1,.635-1.893,2.209,2.209,0,0,1,1.8-.806,1.929,1.929,0,0,1,1.682.806,2.639,2.639,0,0,1,.458,1.582m-1.091-.289a1.48,1.48,0,0,0-.222-.859,1.006,1.006,0,0,0-.91-.466,1.094,1.094,0,0,0-.91.455,1.67,1.67,0,0,0-.339.869Z" transform="translate(-682.163 -53.476)" fill="#fff"/>
    </g>
  </g>
</svg>
