<svg id="Group_1863" data-name="Group 1863" xmlns="http://www.w3.org/2000/svg" xmlns:xlink="http://www.w3.org/1999/xlink" width="41.194" height="50.468" viewBox="0 0 41.194 50.468">
  <defs>
    <clipPath id="clip-path">
      <rect id="Rectangle_40438" data-name="Rectangle 40438" width="41.194" height="50.468" fill="#fff"/>
    </clipPath>
  </defs>
  <g id="Group_1862" data-name="Group 1862" clip-path="url(#clip-path)">
    <path id="Path_185540" data-name="Path 185540" d="M186.751,170.935h-15.2a.784.784,0,0,1,0-1.568h15.2a1.027,1.027,0,0,0,1.026-1.026V140.676a1.027,1.027,0,0,0-1.026-1.026H168.043a1.027,1.027,0,0,0-1.026,1.026v6.62a.784.784,0,0,1-1.568,0v-6.62a2.6,2.6,0,0,1,2.594-2.594h18.708a2.6,2.6,0,0,1,2.594,2.594v27.665a2.6,2.6,0,0,1-2.594,2.594" transform="translate(-148.151 -123.645)" fill="#fff"/>
    <path id="Path_185541" data-name="Path 185541" d="M244.006,16.005a.784.784,0,0,1-.784-.784V1.568h-6.1V15.221a.784.784,0,1,1-1.568,0V.784A.784.784,0,0,1,236.338,0h7.668a.784.784,0,0,1,.784.784V15.221a.784.784,0,0,1-.784.784" transform="translate(-210.926)" fill="#fff"/>
    <path id="Path_185542" data-name="Path 185542" d="M227.263,1.568H215.168a.784.784,0,1,1,0-1.568h12.095a.784.784,0,1,1,0,1.568" transform="translate(-191.97)" fill="#fff"/>
    <path id="Path_185543" data-name="Path 185543" d="M328.952,215.412a.784.784,0,0,1-.784-.784V195.1a.784.784,0,0,1,1.568,0v19.525a.784.784,0,0,1-.784.784" transform="translate(-293.857 -174.002)" fill="#fff"/>
    <path id="Path_185544" data-name="Path 185544" d="M273.008,215.412a.784.784,0,0,1-.784-.784V195.1a.784.784,0,1,1,1.568,0v19.525a.784.784,0,0,1-.784.784" transform="translate(-243.762 -174.002)" fill="#fff"/>
    <path id="Path_185545" data-name="Path 185545" d="M217.066,215.412a.784.784,0,0,1-.784-.784V195.1a.784.784,0,0,1,1.568,0v19.525a.784.784,0,0,1-.784.784" transform="translate(-193.669 -174.002)" fill="#fff"/>
    <path id="Path_185546" data-name="Path 185546" d="M320.638,442.053h-1.583a1.4,1.4,0,0,1-1.4-1.4V438.09a.784.784,0,0,1,1.568,0v2.395h1.247V438.09a.784.784,0,0,1,1.568,0v2.563a1.4,1.4,0,0,1-1.4,1.4" transform="translate(-284.443 -391.585)" fill="#fff"/>
    <path id="Path_185547" data-name="Path 185547" d="M209.625,442.053h-1.408a.784.784,0,1,1,0-1.568h1.24V438.09a.784.784,0,0,1,1.568,0v2.563a1.4,1.4,0,0,1-1.4,1.4" transform="translate(-185.745 -391.585)" fill="#fff"/>
    <path id="Path_185548" data-name="Path 185548" d="M17.772,269.495H3.62a3.62,3.62,0,0,1-3.609-3.909l1.333-16.662a4.543,4.543,0,0,1,4.505-4.159h9.692a4.543,4.543,0,0,1,4.505,4.159l1.333,16.662a3.62,3.62,0,0,1-3.609,3.909M5.85,246.333a2.967,2.967,0,0,0-2.942,2.716L1.575,265.711a2.052,2.052,0,0,0,2.045,2.216H17.772a2.052,2.052,0,0,0,2.045-2.216l-1.333-16.661a2.967,2.967,0,0,0-2.942-2.716Z" transform="translate(0 -219.174)" fill="#fff"/>
    <path id="Path_185549" data-name="Path 185549" d="M27.846,286.29H16.613a3.737,3.737,0,0,1-3.733-3.733v-4.131a.784.784,0,0,1,1.568,0v4.131a2.167,2.167,0,0,0,2.164,2.164H27.846a2.167,2.167,0,0,0,2.164-2.164v-4.131a.784.784,0,0,1,1.568,0v4.131a3.737,3.737,0,0,1-3.733,3.733" transform="translate(-11.533 -248.615)" fill="#fff"/>
    <path id="Path_185550" data-name="Path 185550" d="M55.561,351.877a.784.784,0,0,1-.784-.784v-4.957a.784.784,0,0,1,1.568,0v4.957a.784.784,0,0,1-.784.784" transform="translate(-49.05 -309.245)" fill="#fff"/>
    <path id="Path_185551" data-name="Path 185551" d="M135.611,351.877a.784.784,0,0,1-.784-.784v-4.957a.784.784,0,0,1,1.568,0v4.957a.784.784,0,0,1-.784.784" transform="translate(-120.731 -309.245)" fill="#fff"/>
    <path id="Path_185552" data-name="Path 185552" d="M81.6,220.313a.784.784,0,0,1-.784-.784V217.5a.226.226,0,0,0-.226-.226H78.919a.227.227,0,0,0-.226.226v2.028a.784.784,0,1,1-1.568,0V217.5a1.8,1.8,0,0,1,1.795-1.794h1.676a1.8,1.8,0,0,1,1.794,1.794v2.028a.784.784,0,0,1-.784.784" transform="translate(-69.061 -193.154)" fill="#fff"/>
  </g>
</svg>
