<svg id="Group_1752" data-name="Group 1752" xmlns="http://www.w3.org/2000/svg" xmlns:xlink="http://www.w3.org/1999/xlink" width="401.733" height="208.876" viewBox="0 0 401.733 208.876">
  <defs>
    <clipPath id="clip-path">
      <rect id="Rectangle_40389" data-name="Rectangle 40389" width="401.733" height="208.876" fill="none"/>
    </clipPath>
  </defs>
  <g id="Group_1751" data-name="Group 1751" transform="translate(0 0)" clip-path="url(#clip-path)">
    <path id="Path_185443" data-name="Path 185443" d="M177.979.926a.931.931,0,0,1-.928.932q-2.741.006-5.49.046h-.013a.929.929,0,0,1-.013-1.858q2.761-.04,5.513-.046h0a.928.928,0,0,1,.93.926m-23-.332q-2.753.14-5.515.317a.929.929,0,0,0,.059,1.856c.019,0,.04,0,.061,0q2.747-.175,5.488-.317a.928.928,0,0,0,.88-.976.915.915,0,0,0-.974-.878M166.01.16q-2.756.074-5.519.183a.928.928,0,0,0,.034,1.856l.038,0q2.753-.106,5.5-.18a.931.931,0,0,0,.9-.955.94.94,0,0,0-.955-.9M143.955,1.3q-2.75.209-5.5.455a.929.929,0,0,0,.082,1.854c.027,0,.053,0,.082,0q2.744-.243,5.481-.455a.926.926,0,0,0,.854-1,.916.916,0,0,0-.995-.854M188.068.111q-2.75-.06-5.511-.09a.948.948,0,0,0-.938.92.929.929,0,0,0,.919.938q2.75.029,5.488.088h.021a.928.928,0,0,0,.021-1.856M132.955,2.276q-2.741.281-5.488.592a.929.929,0,0,0,.1,1.852.977.977,0,0,0,.107-.006q2.736-.312,5.466-.59a.929.929,0,0,0-.187-1.849M121.986,3.531q-2.733.347-5.471.73a.93.93,0,0,0,.128,1.851,1.015,1.015,0,0,0,.13-.01q2.724-.381,5.448-.728a.929.929,0,0,0,.8-1.039.919.919,0,0,0-1.039-.8M232.037,3.29q-2.724-.338-5.475-.642a.938.938,0,0,0-1.026.821.928.928,0,0,0,.819,1.026q2.741.3,5.454.64.057.006.115.006a.929.929,0,0,0,.113-1.851M199.088.493q-2.753-.132-5.511-.225a.944.944,0,0,0-.959.9.93.93,0,0,0,.9.961q2.75.095,5.485.225h.046a.929.929,0,0,0,.044-1.856m43.87,4.291q-2.716-.41-5.46-.783a.929.929,0,1,0-.248,1.841q2.727.372,5.431.779a.879.879,0,0,0,.141.01.928.928,0,0,0,.136-1.847m-21.881-2.7q-2.736-.266-5.49-.5a.958.958,0,0,0-1,.846.929.929,0,0,0,.848,1q2.744.232,5.464.5a.769.769,0,0,0,.094.006.929.929,0,0,0,.09-1.854m-10.985-.93q-2.741-.2-5.5-.363l-.055,0a.929.929,0,0,0-.057,1.856q2.747.163,5.479.361c.021,0,.044,0,.069,0a.928.928,0,0,0,.065-1.854M89.326,8.966q-2.7.559-5.4,1.153a.928.928,0,0,0,.2,1.835.9.9,0,0,0,.2-.021q2.684-.593,5.374-1.148a.929.929,0,0,0-.376-1.82m21.727-3.9q-2.724.418-5.448.869a.93.93,0,0,0,.151,1.847.841.841,0,0,0,.153-.013q2.713-.45,5.427-.865a.929.929,0,1,0-.283-1.837M15.631,31.751q-2.541,1.074-5.068,2.187a.929.929,0,0,0,.376,1.78.951.951,0,0,0,.372-.078q2.515-1.109,5.044-2.177a.929.929,0,0,0-.724-1.711M46.658,20.214q-2.624.848-5.238,1.736a.929.929,0,0,0,.3,1.808.9.9,0,0,0,.3-.05q2.6-.882,5.213-1.726a.929.929,0,0,0-.571-1.768m-10.45,3.544q-2.6.925-5.189,1.885a.93.93,0,0,0,.325,1.8.909.909,0,0,0,.323-.059q2.575-.957,5.162-1.875a.929.929,0,0,0-.621-1.751m362.04,69.223a.927.927,0,0,0,.9.682.906.906,0,0,0,.244-.032.927.927,0,0,0,.651-1.14,52.725,52.725,0,0,0-1.757-5.3.929.929,0,1,0-1.73.676,51.473,51.473,0,0,1,1.7,5.11M5.528,36.2q-2.506,1.152-5,2.339a.929.929,0,0,0,.8,1.677Q3.81,39.033,6.3,37.889A.928.928,0,1,0,5.528,36.2m20.333-8.6q-2.572,1-5.131,2.036a.929.929,0,0,0,.349,1.789.888.888,0,0,0,.348-.069q2.549-1.031,5.1-2.024a.929.929,0,0,0-.67-1.732M57.2,16.964q-2.647.776-5.284,1.589a.928.928,0,0,0,.273,1.816.975.975,0,0,0,.273-.04q2.627-.811,5.261-1.581a.929.929,0,1,0-.523-1.784M253.84,6.567q-2.7-.484-5.435-.928a.929.929,0,0,0-.3,1.833q2.718.444,5.41.922a.956.956,0,0,0,.164.015.929.929,0,0,0,.16-1.843m-153.674.306q-2.716.484-5.427,1.01a.929.929,0,0,0,.176,1.841.948.948,0,0,0,.178-.017q2.7-.521,5.4-1a.929.929,0,0,0-.328-1.829M67.838,14.008q-2.664.7-5.326,1.442a.929.929,0,0,0,.246,1.824.86.86,0,0,0,.25-.034q2.65-.736,5.3-1.434a.929.929,0,1,0-.472-1.8M78.55,11.344q-2.684.63-5.366,1.3a.929.929,0,0,0,.225,1.829.919.919,0,0,0,.225-.027q2.667-.665,5.34-1.291a.929.929,0,1,0-.424-1.808m320.823,86.89a45.114,45.114,0,0,1,.5,5.351.928.928,0,0,0,.928.9h.032a.928.928,0,0,0,.9-.959,47.24,47.24,0,0,0-.523-5.573.929.929,0,1,0-1.835.285m-28.6-45.292a.929.929,0,0,0-1.153,1.457q2.171,1.719,4.205,3.478a.929.929,0,1,0,1.216-1.406q-2.065-1.782-4.268-3.529m9.132,93.553c-1.253,1.26-2.58,2.527-3.94,3.766a.929.929,0,1,0,1.251,1.373c1.383-1.258,2.729-2.548,4-3.831a.928.928,0,0,0-1.316-1.308m-.762-86.3a.929.929,0,0,0-1.28,1.348c1.333,1.266,2.626,2.565,3.846,3.856a.929.929,0,1,0,1.35-1.276c-1.241-1.316-2.559-2.637-3.917-3.928M361.834,46.412a.929.929,0,0,0-1.041,1.539q2.295,1.553,4.471,3.141a.929.929,0,0,0,1.1-1.5q-2.2-1.607-4.526-3.18m10.014,107.436q-2.051,1.713-4.259,3.42a.927.927,0,1,0,1.132,1.469q2.243-1.727,4.316-3.462a.929.929,0,1,0-1.19-1.427m15.274-15.492c-1.089,1.392-2.261,2.8-3.487,4.171a.929.929,0,1,0,1.386,1.236c1.253-1.406,2.45-2.838,3.564-4.261a.929.929,0,0,0-1.463-1.146m13.614-30.238a.94.94,0,0,0-1.006.844,45.432,45.432,0,0,1-.791,5.324.929.929,0,0,0,.718,1.1.961.961,0,0,0,.193.021.933.933,0,0,0,.909-.739,47.465,47.465,0,0,0,.819-5.542.926.926,0,0,0-.842-1.006M264.67,8.647q-2.693-.556-5.408-1.079a.929.929,0,0,0-.351,1.824q2.71.521,5.383,1.075a.907.907,0,0,0,.189.019.929.929,0,0,0,.187-1.839M363.2,160.528q-2.18,1.564-4.5,3.117a.93.93,0,0,0,1.037,1.543q2.343-1.573,4.541-3.149a.929.929,0,1,0-1.081-1.511M390.17,72.641c-1.069-1.467-2.221-2.939-3.422-4.375a.929.929,0,1,0-1.425,1.192c1.174,1.4,2.3,2.844,3.348,4.278a.928.928,0,1,0,1.5-1.094M394.427,129a.931.931,0,0,0-1.264.355c-.865,1.541-1.824,3.094-2.845,4.612A.929.929,0,1,0,391.858,135c1.048-1.56,2.034-3.155,2.924-4.74a.927.927,0,0,0-.355-1.264M396,82.11c-.814-1.616-1.732-3.248-2.723-4.854a.929.929,0,1,0-1.581.976c.964,1.562,1.854,3.149,2.649,4.717A.928.928,0,1,0,396,82.11m2.712,36.789a.928.928,0,0,0-1.171.592,53,53,0,0,1-1.948,5.034.929.929,0,0,0,.47,1.228.91.91,0,0,0,.378.08.93.93,0,0,0,.848-.55,54.683,54.683,0,0,0,2.017-5.212.929.929,0,0,0-.594-1.173M327.827,28.1q-2.512-1.083-5.089-2.135a.93.93,0,0,0-.7,1.723q2.561,1.04,5.055,2.12a.929.929,0,0,0,.735-1.707M307.233,20.17q-2.6-.885-5.236-1.74a.929.929,0,0,0-.571,1.768q2.627.845,5.208,1.73a.906.906,0,0,0,.3.05.929.929,0,0,0,.3-1.808M317.6,23.938q-2.558-.985-5.17-1.933a.929.929,0,0,0-.634,1.747q2.6.942,5.135,1.919a.929.929,0,0,0,.668-1.734m-20.871-7.158q-2.624-.8-5.292-1.564a.929.929,0,0,0-.51,1.787q2.653.759,5.261,1.553a.939.939,0,0,0,.269.04.928.928,0,0,0,.271-1.816m-10.6-3.04q-2.65-.713-5.338-1.394a.929.929,0,1,0-.454,1.8q2.675.676,5.307,1.386a.974.974,0,0,0,.243.032.929.929,0,0,0,.243-1.826m-10.691-2.706q-2.676-.63-5.378-1.234a.93.93,0,0,0-.4,1.816q2.7.6,5.351,1.226a.92.92,0,0,0,.214.025.929.929,0,0,0,.216-1.833m69.275,161.2q-2.346,1.321-4.8,2.637a.928.928,0,1,0,.877,1.637q2.475-1.323,4.837-2.656a.929.929,0,1,0-.913-1.618m-9.657,5.173q-2.406,1.226-4.906,2.444a.929.929,0,0,0,.407,1.765.908.908,0,0,0,.407-.1q2.518-1.226,4.937-2.46a.928.928,0,1,0-.844-1.654m19.066-10.778q-2.272,1.435-4.667,2.861a.928.928,0,0,0,.476,1.726.946.946,0,0,0,.477-.13q2.412-1.441,4.706-2.884a.93.93,0,0,0-.991-1.574M347.679,37.784q-2.395-1.323-4.875-2.6a.93.93,0,0,0-.854,1.652q2.458,1.272,4.83,2.578a.929.929,0,0,0,.9-1.625m9.526,5.6q-2.312-1.455-4.725-2.874a.929.929,0,0,0-.94,1.6q2.386,1.4,4.671,2.844a.933.933,0,0,0,.5.143.93.93,0,0,0,.5-1.715M337.869,32.7q-2.461-1.195-5-2.358a.929.929,0,1,0-.772,1.69q2.512,1.152,4.954,2.339a.944.944,0,0,0,.407.094.929.929,0,0,0,.407-1.765" transform="translate(0 0)" fill="#6f7b91"/>
    <path id="Path_185444" data-name="Path 185444" d="M157.231,114.868c-4.339,2.265-9.249,5.794-8.76,6.734s6.2-1.068,10.534-3.332l1.157-.6,3.648,1.358c-.025,0-.052-.01-.074,0l-1.165.607a.318.318,0,0,0-.1.433l.59,1.131a.315.315,0,0,0,.413.166l1.167-.609a.258.258,0,0,0,.124-.166l1.356-.707c1.436.533,2.993,1.11,4.532,1.677l-1.15.6a.318.318,0,0,0-.1.433l.59,1.131a.317.317,0,0,0,.414.166l1.165-.609a.258.258,0,0,0,.124-.166l1.312-.686c3.917,1.442,7.207,2.637,7.326,2.626a15.715,15.715,0,0,0,1.986-.987l0,0c.4-.212.712-.42.688-.468a3.421,3.421,0,0,0-.878.355l-6.9-4.173c.309-.185.514-.38.468-.466-.052-.1-.422-.011-.827.2l-.04.025-1.364-.825c.294-.18.485-.367.441-.449-.052-.1-.422-.013-.827.2l-.015.01-1.239-.751-.687-.731c.361-.2.611-.428.561-.521s-.422-.011-.827.2l-.023.013-1.371-1.461c.357-.2.6-.424.556-.518s-.424-.011-.827.2l-.019.01-1.26-1.343c2.9-1.551,4.035-2.194,6.18-3.313a57.021,57.021,0,0,0,5.836-3.516c2.137.779,6.369,2.37,6.369,2.37l1.27-.539-4.02-4.606a8.53,8.53,0,0,0,.758-.752c.869-.527,1.392-.9,1.344-.989s-.625.115-1.52.512a8,8,0,0,0-1.11.254L181.545,97l-1.169.733s-1.19,4.675-1.755,6.791c-1.808.693-3.888,1.541-6.048,2.481-2.691,1.4-3.894,1.988-6.373,3.243l-.378-1.789.017-.008c.4-.21.689-.464.636-.565s-.372-.019-.741.16l-.414-1.961.025-.011c.4-.21.687-.464.636-.565s-.378-.017-.749.162l-.206-.982.094-1.446.015-.008c.4-.21.689-.462.636-.563-.044-.084-.306-.032-.621.105l.1-1.591.044-.019c.4-.21.687-.464.636-.565-.046-.086-.323-.029-.649.118l.521-8.046a3.351,3.351,0,0,0,.794-.518,1.875,1.875,0,0,0-.777.3h0a15.509,15.509,0,0,0-1.946,1.066c-.076.09-.98,3.472-2.038,7.509l-1.312.684a.263.263,0,0,0-.208.008l-1.165.607a.316.316,0,0,0-.1.434l.59,1.131a.317.317,0,0,0,.413.166l1.15-.6c-.414,1.587-.831,3.193-1.216,4.677l-1.356.707a.263.263,0,0,0-.208.008l-1.165.607a.317.317,0,0,0-.1.434l.59,1.131a.317.317,0,0,0,.412.166l1.167-.609c.023-.011.027-.042.044-.059-.445,1.721-.794,3.077-.964,3.743-.378.2-.766.4-1.174.611" transform="translate(135.034 83.823)" fill="#6f7b91"/>
  </g>
</svg>
