<svg id="Group_1865" data-name="Group 1865" xmlns="http://www.w3.org/2000/svg" xmlns:xlink="http://www.w3.org/1999/xlink" width="55.799" height="50.468" viewBox="0 0 55.799 50.468">
  <defs>
    <clipPath id="clip-path">
      <rect id="Rectangle_40439" data-name="Rectangle 40439" width="55.799" height="50.468" fill="#fff"/>
    </clipPath>
  </defs>
  <g id="Group_1864" data-name="Group 1864" clip-path="url(#clip-path)">
    <path id="Path_185553" data-name="Path 185553" d="M92.822,95.485a4.7,4.7,0,0,1-4.691-4.691.84.84,0,0,1,1.679,0,3.012,3.012,0,1,0,5.661-1.435.84.84,0,0,1,1.476-.8,4.693,4.693,0,0,1-4.125,6.928" transform="translate(-78.264 -78.252)" fill="#fff"/>
    <path id="Path_185554" data-name="Path 185554" d="M91.7,143.837a2.585,2.585,0,0,1-.853-.145l-21.383-7.664a.842.842,0,0,1-.128-.059l-12.694-7.14-5.635-.585-.066-.01a3.127,3.127,0,0,1-2.343-4.213l1.662-4.254a.84.84,0,1,1,1.564.611l-1.662,4.254a1.447,1.447,0,0,0,1.056,1.944l5.771.6a.842.842,0,0,1,.325.1L70.1,134.471l21.309,7.638a.917.917,0,0,0,1.09-.407.918.918,0,0,0-.435-1.307l-21.489-8.9a.84.84,0,0,1,.643-1.552l21.495,8.907a2.6,2.6,0,0,1-1.01,4.991" transform="translate(-42.965 -105.884)" fill="#fff"/>
    <path id="Path_185555" data-name="Path 185555" d="M186,102.428a.84.84,0,0,1-.82-.661l-2.637-12.078a1.836,1.836,0,0,0-2.786-1.136l-5.956,3.84a.839.839,0,0,1-.882.017l-6.195-3.662a.839.839,0,0,1-.394-.9l.958-4.468a.858.858,0,0,0-.893-1.037l-1.684.1a.84.84,0,0,1-.1-1.676l1.684-.1a2.538,2.538,0,0,1,2.639,3.065L168.1,87.61l5.228,3.09,5.52-3.559a3.516,3.516,0,0,1,5.336,2.185l2.638,12.082a.841.841,0,0,1-.821,1.019" transform="translate(-145.48 -71.632)" fill="#fff"/>
    <path id="Path_185556" data-name="Path 185556" d="M304.662,188.062a.84.84,0,0,1-.82-.663l-1.562-7.241a.84.84,0,0,1,1.642-.354l1.562,7.241a.841.841,0,0,1-.822,1.017" transform="translate(-268.419 -159.084)" fill="#fff"/>
    <path id="Path_185557" data-name="Path 185557" d="M82.068,141.25a.84.84,0,0,1-.2-1.656l4.1-.984a.84.84,0,0,1,.392,1.633l-4.1.984a.844.844,0,0,1-.2.023" transform="translate(-72.134 -123.07)" fill="#fff"/>
    <path id="Path_185558" data-name="Path 185558" d="M375.1,239.694a.84.84,0,0,1-.539-1.484l1.845-1.54-10.021-4.529a.84.84,0,1,1,.692-1.531l11.242,5.08a.84.84,0,0,1,.192,1.41l-2.873,2.4a.836.836,0,0,1-.538.2" transform="translate(-324.927 -204.724)" fill="#fff"/>
    <path id="Path_185559" data-name="Path 185559" d="M102.736,207.029a.838.838,0,0,1-.381-.091L71.8,191.372a.839.839,0,0,1-.376-.385L69.3,186.58a.84.84,0,1,1,1.514-.727L72.812,190l29.812,15.185,3.034-2.533a.84.84,0,1,1,1.076,1.289l-3.46,2.888a.839.839,0,0,1-.538.2" transform="translate(-61.47 -164.621)" fill="#fff"/>
    <path id="Path_185560" data-name="Path 185560" d="M4.966,15.582a.839.839,0,0,1-.749-.458L.092,7.035A.84.84,0,0,1,.543,5.868L15.91.054a.839.839,0,0,1,1.058.429l2.209,4.724a.84.84,0,1,1-1.521.712L15.776,1.9,2.014,7.107l3.7,7.253a.84.84,0,0,1-.747,1.221" transform="translate(0 0.001)" fill="#fff"/>
    <path id="Path_185561" data-name="Path 185561" d="M54.806,236.423a.84.84,0,0,1-.784-.538l-3.351-8.7-3.877,4.446a.84.84,0,0,1-1.266-1.1l4.793-5.5a.84.84,0,0,1,1.417.25l3.852,10a.84.84,0,0,1-.784,1.142" transform="translate(-40.247 -199.58)" fill="#fff"/>
    <path id="Path_185562" data-name="Path 185562" d="M363.817,371.324a.84.84,0,0,1-.8-.581l-1.911-5.881a.84.84,0,1,1,1.6-.519l1.911,5.881a.84.84,0,0,1-.8,1.1" transform="translate(-320.64 -323.035)" fill="#fff"/>
    <path id="Path_185563" data-name="Path 185563" d="M469.048,283.529a.84.84,0,0,1-.8-.581l-1.911-5.881a.84.84,0,1,1,1.6-.519l1.911,5.881a.84.84,0,0,1-.8,1.1" transform="translate(-414.089 -245.07)" fill="#fff"/>
    <path id="Path_185564" data-name="Path 185564" d="M61.106,46.969a11.242,11.242,0,0,1-5.193-1.283,1.372,1.372,0,0,1,.138-2.494l2.211-.86.732-2.972a.84.84,0,0,1,.7-.631l4.393-.6a.841.841,0,0,1,.847.425L66.294,41l2.723-.326a1.453,1.453,0,0,1,1.368,2.268c-.8,1.161-2.519,2.249-5.1,3.234a11.656,11.656,0,0,1-4.179.792M57.322,44.5a9.6,9.6,0,0,0,7.364.108,11.579,11.579,0,0,0,3.952-2.2l-2.7.324a.84.84,0,0,1-.834-.426l-1.353-2.437-3.259.444-.7,2.842a.84.84,0,0,1-.511.582Zm1.651-1.543h0Z" transform="translate(-48.999 -33.854)" fill="#fff"/>
    <path id="Path_185565" data-name="Path 185565" d="M54.831,379.661a.724.724,0,1,1-.724-.724.724.724,0,0,1,.724.724" transform="translate(-47.406 -336.51)" fill="#fff"/>
    <path id="Path_185566" data-name="Path 185566" d="M86.409,386.128a.724.724,0,1,1-.724-.724.724.724,0,0,1,.724.724" transform="translate(-75.448 -342.253)" fill="#fff"/>
    <path id="Path_185567" data-name="Path 185567" d="M128.839,373.2a.724.724,0,1,1-.724-.724.724.724,0,0,1,.724.724" transform="translate(-113.128 -330.77)" fill="#fff"/>
    <path id="Path_185568" data-name="Path 185568" d="M452.447,391.784a.724.724,0,1,1-.724-.724.724.724,0,0,1,.724.724" transform="translate(-400.503 -347.275)" fill="#fff"/>
    <path id="Path_185569" data-name="Path 185569" d="M77.056,336.718a.724.724,0,1,1-.724-.724.724.724,0,0,1,.724.724" transform="translate(-67.143 -298.375)" fill="#fff"/>
    <path id="Path_185570" data-name="Path 185570" d="M21.913,343.184a.724.724,0,1,1-.724-.724.724.724,0,0,1,.724.724" transform="translate(-18.174 -304.117)" fill="#fff"/>
    <path id="Path_185571" data-name="Path 185571" d="M418.58,421.386a.724.724,0,1,1-.724-.724.724.724,0,0,1,.724.724" transform="translate(-370.428 -373.563)" fill="#fff"/>
    <path id="Path_185572" data-name="Path 185572" d="M325.159,408.455a.724.724,0,1,1-.724-.724.724.724,0,0,1,.724.724" transform="translate(-287.467 -362.08)" fill="#fff"/>
    <path id="Path_185573" data-name="Path 185573" d="M286.6,421.386a.724.724,0,1,1-.724-.724.724.724,0,0,1,.724.724" transform="translate(-253.226 -373.563)" fill="#fff"/>
    <path id="Path_185574" data-name="Path 185574" d="M322.189,438.55a.724.724,0,1,1-.724-.724.724.724,0,0,1,.724.724" transform="translate(-284.83 -388.805)" fill="#fff"/>
    <path id="Path_185575" data-name="Path 185575" d="M151.508,378.3l.75,1.011a.44.44,0,0,0,.533.14l1.118-.5a.44.44,0,0,1,.543.65l-.713,1.048a.441.441,0,0,0,.033.538l.8.91a.44.44,0,0,1-.454.713l-1.189-.347a.44.44,0,0,0-.5.19l-.656,1.051a.44.44,0,0,1-.814-.23l-.01-1.212a.44.44,0,0,0-.334-.423l-1.23-.307a.44.44,0,0,1-.028-.847l1.166-.373a.44.44,0,0,0,.3-.459l-.114-1.253a.44.44,0,0,1,.792-.3" transform="translate(-132.365 -335.785)" fill="#fff"/>
  </g>
</svg>
