<svg id="Group_1754" data-name="Group 1754" xmlns="http://www.w3.org/2000/svg" xmlns:xlink="http://www.w3.org/1999/xlink" width="308.966" height="323.932" viewBox="0 0 308.966 323.932">
  <defs>
    <clipPath id="clip-path">
      <rect id="Rectangle_40390" data-name="Rectangle 40390" width="308.966" height="323.932" fill="none"/>
    </clipPath>
  </defs>
  <g id="Group_1753" data-name="Group 1753" clip-path="url(#clip-path)">
    <path id="Path_185445" data-name="Path 185445" d="M54.409,286.76a1.212,1.212,0,0,1-1.1.708,1.18,1.18,0,0,1-.5-.11c-2.214-1.01-4.4-2.094-6.5-3.224A1.214,1.214,0,0,1,47.453,282c2.052,1.1,4.191,2.166,6.355,3.154a1.215,1.215,0,0,1,.6,1.608M50.176,98.285a1.211,1.211,0,1,0-1.895-1.508q-2.274,2.857-4.428,5.687a1.214,1.214,0,0,0,1.935,1.468q2.139-2.812,4.388-5.647m-8.85,180.146c-2.009-1.269-3.981-2.613-5.851-3.994a1.212,1.212,0,0,0-1.441,1.95c1.92,1.419,3.937,2.8,6,4.1a1.213,1.213,0,1,0,1.294-2.052m-8.3-158.693a1.214,1.214,0,0,0-1.68.347q-2,3.055-3.882,6.076a1.213,1.213,0,0,0,2.062,1.279q1.859-3,3.847-6.023a1.206,1.206,0,0,0-.347-1.678M24.809,265.155a1.213,1.213,0,0,0-1.738,1.693c1.67,1.715,3.448,3.4,5.288,4.994a1.213,1.213,0,1,0,1.593-1.83c-1.79-1.556-3.52-3.191-5.143-4.857m42.2-190.248q-2.457,2.681-4.822,5.343A1.211,1.211,0,1,0,64,81.861q2.352-2.644,4.8-5.313a1.214,1.214,0,0,0-1.79-1.64m13.8,219.05c-2.334-.5-4.662-1.065-6.923-1.665a1.2,1.2,0,0,0-1.481.86,1.211,1.211,0,0,0,.858,1.483c2.3.611,4.66,1.179,7.038,1.693a1.132,1.132,0,0,0,.254.027,1.213,1.213,0,0,0,.254-2.4M59.166,85.546a1.218,1.218,0,0,0-1.715.13q-2.371,2.764-4.635,5.507a1.213,1.213,0,1,0,1.87,1.546Q56.933,90,59.3,87.253a1.216,1.216,0,0,0-.13-1.708M88.809,54.317a1.211,1.211,0,0,0-1.715-.025q-2.607,2.532-5.128,5.046a1.212,1.212,0,0,0,1.713,1.715q2.513-2.5,5.106-5.021a1.211,1.211,0,0,0,.025-1.715M67.062,290.286c-2.294-.74-4.545-1.541-6.7-2.373a1.213,1.213,0,1,0-.875,2.264c2.194.848,4.5,1.663,6.826,2.418a1.237,1.237,0,0,0,.376.06,1.214,1.214,0,0,0,.374-2.368M73.683,71.313q2.431-2.577,4.961-5.166a1.213,1.213,0,0,0-1.74-1.69q-2.535,2.6-4.986,5.188a1.214,1.214,0,0,0,1.765,1.668M1.2,208.6h.01a1.208,1.208,0,0,0,1.212-1.2c.022-2.331.127-4.714.312-7.085a1.214,1.214,0,0,0-1.114-1.3,1.241,1.241,0,0,0-1.3,1.114c-.189,2.426-.3,4.867-.317,7.252A1.215,1.215,0,0,0,1.2,208.6m2.169,12.912c-.342-2.3-.588-4.672-.743-7.035a1.213,1.213,0,0,0-2.421.16c.157,2.428.416,4.859.763,7.227a1.211,1.211,0,0,0,1.2,1.037,1.376,1.376,0,0,0,.177-.012,1.218,1.218,0,0,0,1.027-1.376M2.147,194.284a.982.982,0,0,0,.172.012,1.213,1.213,0,0,0,1.2-1.042c.329-2.3.733-4.655,1.212-7a1.213,1.213,0,0,0-2.378-.481c-.484,2.391-.9,4.792-1.234,7.138a1.214,1.214,0,0,0,1.032,1.371m2.7-14.086a1.291,1.291,0,0,0,.307.037,1.207,1.207,0,0,0,1.169-.907c.586-2.251,1.244-4.552,1.957-6.841a1.211,1.211,0,1,0-2.311-.723c-.728,2.326-1.4,4.667-1.989,6.956a1.213,1.213,0,0,0,.868,1.478m31.528-64.182a1.206,1.206,0,0,0,.995-.521q2.012-2.9,4.144-5.829a1.213,1.213,0,0,0-1.962-1.426q-2.147,2.954-4.173,5.874a1.211,1.211,0,0,0,1,1.9m-20.481,138.2a1.213,1.213,0,0,0-2.009,1.359c1.349,1.994,2.807,3.957,4.343,5.836a1.212,1.212,0,1,0,1.877-1.533c-1.488-1.822-2.9-3.727-4.211-5.662M14.365,153.153a1.207,1.207,0,0,0,1.6-.6q1.462-3.19,3.079-6.435a1.211,1.211,0,1,0-2.166-1.085q-1.642,3.283-3.116,6.514a1.214,1.214,0,0,0,.6,1.606m-9.681,75.3a1.213,1.213,0,0,0-2.363.551c.553,2.368,1.217,4.724,1.972,7.008a1.208,1.208,0,0,0,1.149.833,1.24,1.24,0,0,0,.379-.06,1.218,1.218,0,0,0,.775-1.533c-.73-2.214-1.374-4.5-1.912-6.8m7.791-70.941a1.22,1.22,0,0,0-1.586.661q-1.4,3.4-2.61,6.739a1.219,1.219,0,0,0,.725,1.556,1.216,1.216,0,0,0,1.556-.728q1.2-3.287,2.573-6.644a1.215,1.215,0,0,0-.658-1.583M9.107,241.85a1.214,1.214,0,0,0-2.229.965c.965,2.216,2.042,4.418,3.211,6.547a1.213,1.213,0,0,0,2.127-1.167c-1.134-2.062-2.179-4.2-3.109-6.345M25.4,131.9a1.209,1.209,0,0,0-1.658.439q-1.84,3.167-3.535,6.288a1.213,1.213,0,0,0,.491,1.645,1.193,1.193,0,0,0,.576.147,1.209,1.209,0,0,0,1.067-.636q1.672-3.085,3.5-6.225A1.213,1.213,0,0,0,25.4,131.9M259.052,256.978q-3.152,1.746-6.293,3.418a1.213,1.213,0,0,0,.571,2.284,1.194,1.194,0,0,0,.568-.142q3.164-1.679,6.327-3.438a1.212,1.212,0,0,0-1.174-2.122m-25.527,12.949q-3.276,1.5-6.532,2.922a1.212,1.212,0,1,0,.97,2.221q3.276-1.425,6.577-2.942a1.212,1.212,0,1,0-1.015-2.2m12.887-6.233q-3.212,1.63-6.415,3.179a1.213,1.213,0,0,0,1.057,2.184q3.216-1.559,6.452-3.2a1.213,1.213,0,1,0-1.094-2.164m-52.9,21.67q-3.444,1.073-6.853,2.049a1.212,1.212,0,0,0,.334,2.378,1.286,1.286,0,0,0,.334-.047q3.437-.984,6.906-2.064a1.213,1.213,0,0,0-.721-2.316m26.9-9.726q-3.332,1.369-6.644,2.65a1.212,1.212,0,0,0,.436,2.343,1.167,1.167,0,0,0,.436-.082q3.336-1.29,6.691-2.67a1.211,1.211,0,0,0-.92-2.241M207.061,280.8q-3.388,1.227-6.751,2.361a1.212,1.212,0,0,0,.386,2.361,1.229,1.229,0,0,0,.386-.062q3.392-1.144,6.8-2.378a1.213,1.213,0,0,0-.825-2.281M271.438,249.8q-3.085,1.859-6.163,3.645a1.213,1.213,0,0,0,.608,2.261,1.185,1.185,0,0,0,.606-.165q3.1-1.791,6.2-3.665a1.213,1.213,0,0,0-1.254-2.077m23.991-15.619q-2.951,2.064-5.9,4.056a1.212,1.212,0,0,0,1.356,2.009q2.966-2,5.934-4.081a1.212,1.212,0,0,0-1.391-1.984m13.3-8.157a1.208,1.208,0,0,0-1.7-.244q-2.88,2.158-5.764,4.246a1.214,1.214,0,0,0,.711,2.2,1.2,1.2,0,0,0,.713-.232q2.9-2.1,5.794-4.271a1.208,1.208,0,0,0,.244-1.7M283.561,242.2q-3.014,1.963-6.031,3.857a1.213,1.213,0,0,0,.646,2.239,1.229,1.229,0,0,0,.646-.184q3.029-1.9,6.066-3.879a1.213,1.213,0,1,0-1.326-2.032M109.065,297.5q-3.6-.161-7.12-.451a1.179,1.179,0,0,0-1.309,1.109,1.212,1.212,0,0,0,1.109,1.306q3.564.3,7.21.461h.055a1.214,1.214,0,0,0,.055-2.426M120.69,27.235a1.213,1.213,0,1,0-1.566-1.852q-2.767,2.341-5.47,4.665a1.213,1.213,0,0,0,.79,2.132,1.2,1.2,0,0,0,.793-.294q2.689-2.315,5.452-4.65m-12.458,7.537q-2.722,2.4-5.37,4.787a1.212,1.212,0,0,0,1.623,1.8q2.636-2.375,5.35-4.764a1.214,1.214,0,0,0-1.6-1.822M179.762,289.3q-3.493.9-6.943,1.715a1.211,1.211,0,0,0,.274,2.391,1.183,1.183,0,0,0,.279-.03q3.482-.815,7-1.73a1.211,1.211,0,1,0-.606-2.346m-56.429,8.322c-1.837.047-3.662.072-5.465.072l-1.67-.01a1.186,1.186,0,0,0-1.222,1.2,1.206,1.206,0,0,0,1.2,1.222l1.688.01q2.745,0,5.535-.072a1.213,1.213,0,0,0-.065-2.426m-28.481-1.3q-3.575-.441-7.053-1.027a1.212,1.212,0,0,0-.4,2.391q3.53.595,7.158,1.042a1,1,0,0,0,.15.01,1.212,1.212,0,0,0,.147-2.416M97.547,44.4q-2.67,2.464-5.258,4.911a1.214,1.214,0,0,0,1.67,1.763q2.573-2.438,5.23-4.891A1.212,1.212,0,0,0,97.547,44.4m54.22,250.663q-3.564.542-7.078.965a1.212,1.212,0,0,0,.145,2.416.977.977,0,0,0,.147-.01q3.549-.426,7.15-.97a1.214,1.214,0,0,0-.364-2.4m14.071-2.513q-3.53.726-7.018,1.354a1.212,1.212,0,0,0,.212,2.406,1.083,1.083,0,0,0,.217-.02q3.515-.628,7.078-1.364a1.213,1.213,0,0,0-.489-2.376M131.917,16.4a1.213,1.213,0,0,0-1.705-.18q-2.82,2.281-5.565,4.552a1.213,1.213,0,1,0,1.546,1.87q2.737-2.262,5.545-4.537a1.212,1.212,0,0,0,.179-1.705m5.672,280.388q-3.594.325-7.123.534a1.213,1.213,0,0,0,.07,2.423.354.354,0,0,0,.072,0q3.568-.206,7.2-.536a1.213,1.213,0,0,0,1.1-1.319,1.24,1.24,0,0,0-1.314-1.1" transform="translate(0 23.811)" fill="#6f7b91"/>
    <path id="Path_185446" data-name="Path 185446" d="M91.842,11.008c4.989-3.991,10.391-9.75,9.529-10.83S93.7,3.1,88.713,7.1L87.382,8.163c-.873-.145-2.69-.444-5.014-.823.03-.012.067,0,.095-.022L83.8,6.246a.415.415,0,0,0,.02-.581l-1.04-1.3a.412.412,0,0,0-.571-.107L80.873,5.331a.347.347,0,0,0-.117.244L79.2,6.822c-1.977-.322-4.114-.668-6.228-1.01l1.321-1.057a.415.415,0,0,0,.02-.581l-1.04-1.3a.412.412,0,0,0-.571-.107L71.359,3.84a.347.347,0,0,0-.117.244L69.733,5.291c-5.38-.86-9.9-1.563-10.042-1.518a20.2,20.2,0,0,0-2.3,1.763l0,0c-.464.371-.805.718-.763.77a4.4,4.4,0,0,0,1.037-.673l9.885,3.61c-.347.317-.561.616-.481.713.092.117.544-.09,1.007-.461l.047-.042,1.955.713c-.332.307-.531.593-.454.688.092.117.546-.09,1.01-.461l.017-.017,1.775.651,1.065.763c-.411.349-.673.7-.586.808s.544-.09,1.007-.461l.027-.022,2.124,1.526c-.406.347-.668.7-.581.8s.543-.09,1.01-.461l.02-.02,1.952,1.406c-3.318,2.715-4.615,3.824-7.083,5.8a74.585,74.585,0,0,0-6.592,5.968c-2.934-.459-8.756-1.431-8.756-1.431l-1.491,1.007,6.31,4.889a11.21,11.21,0,0,0-.783,1.157c-.98.893-1.556,1.5-1.473,1.606s.77-.307,1.82-1.037a11.325,11.325,0,0,0,1.356-.606l3.416,7.3L66.5,38.786s.349-6.288.541-9.142c2.144-1.341,4.592-2.949,7.125-4.7,3.091-2.473,4.488-3.523,7.347-5.754l.935,2.194-.022.017c-.464.371-.765.765-.673.883s.484-.07.91-.391L83.69,24.3l-.027.02c-.466.371-.765.768-.673.883s.486-.07.917-.394l.511,1.2.244,1.875-.02.015c-.464.371-.765.768-.673.883.077.1.4-.035.77-.289l.269,2.062-.052.035c-.464.371-.765.768-.673.885.08.1.419-.045.8-.314L86.44,41.6a4.437,4.437,0,0,0-.885.863c.042.055.454-.2.92-.576l0,0A20.413,20.413,0,0,0,88.7,40.032c.075-.135.379-4.694.72-10.132l1.508-1.207a.341.341,0,0,0,.264-.06l1.341-1.072a.415.415,0,0,0,.02-.581l-1.04-1.3a.415.415,0,0,0-.571-.107L89.626,26.63c.13-2.137.262-4.3.381-6.3l1.558-1.247a.351.351,0,0,0,.264-.06l1.341-1.075a.412.412,0,0,0,.02-.578l-1.042-1.3a.412.412,0,0,0-.568-.107l-1.341,1.072c-.027.022-.022.06-.042.087.137-2.316.244-4.141.3-5.036.434-.349.88-.7,1.349-1.08" transform="translate(81.438 -0.001)" fill="#6f7b91"/>
  </g>
</svg>
